<mxfile host="app.diagrams.net" agent="Mozilla/5.0 (Windows NT 10.0; Win64; x64) AppleWebKit/537.36 (KHTML, like Gecko) Chrome/129.0.0.0 Safari/537.36 Edg/129.0.0.0" version="24.7.17" pages="4">
  <diagram id="lK3h20KpZvMbwi1cu2bE" name="Ideas">
    <mxGraphModel dx="2253" dy="749" grid="1" gridSize="10" guides="1" tooltips="1" connect="1" arrows="1" fold="1" page="1" pageScale="1" pageWidth="827" pageHeight="1169" math="0" shadow="0">
      <root>
        <mxCell id="0" />
        <mxCell id="1" parent="0" />
        <mxCell id="5ywBb_2FH1Q310NwnJPp-3" value="" style="edgeStyle=orthogonalEdgeStyle;rounded=0;orthogonalLoop=1;jettySize=auto;html=1;" parent="1" source="5ywBb_2FH1Q310NwnJPp-1" target="5ywBb_2FH1Q310NwnJPp-2" edge="1">
          <mxGeometry relative="1" as="geometry" />
        </mxCell>
        <mxCell id="5ywBb_2FH1Q310NwnJPp-1" value="Login" style="rounded=0;whiteSpace=wrap;html=1;" parent="1" vertex="1">
          <mxGeometry x="-160" y="150" width="120" height="60" as="geometry" />
        </mxCell>
        <mxCell id="5ywBb_2FH1Q310NwnJPp-5" style="edgeStyle=orthogonalEdgeStyle;rounded=0;orthogonalLoop=1;jettySize=auto;html=1;" parent="1" source="5ywBb_2FH1Q310NwnJPp-2" target="5ywBb_2FH1Q310NwnJPp-6" edge="1">
          <mxGeometry relative="1" as="geometry">
            <mxPoint x="200" y="350" as="targetPoint" />
          </mxGeometry>
        </mxCell>
        <mxCell id="5ywBb_2FH1Q310NwnJPp-7" value="" style="edgeStyle=orthogonalEdgeStyle;rounded=0;orthogonalLoop=1;jettySize=auto;html=1;" parent="1" source="5ywBb_2FH1Q310NwnJPp-2" target="5ywBb_2FH1Q310NwnJPp-6" edge="1">
          <mxGeometry relative="1" as="geometry" />
        </mxCell>
        <mxCell id="5ywBb_2FH1Q310NwnJPp-9" value="" style="edgeStyle=orthogonalEdgeStyle;rounded=0;orthogonalLoop=1;jettySize=auto;html=1;" parent="1" source="5ywBb_2FH1Q310NwnJPp-2" target="5ywBb_2FH1Q310NwnJPp-8" edge="1">
          <mxGeometry relative="1" as="geometry" />
        </mxCell>
        <mxCell id="5ywBb_2FH1Q310NwnJPp-2" value="plan" style="rounded=0;whiteSpace=wrap;html=1;" parent="1" vertex="1">
          <mxGeometry x="140" y="150" width="120" height="60" as="geometry" />
        </mxCell>
        <mxCell id="5ywBb_2FH1Q310NwnJPp-6" value="free" style="rounded=0;whiteSpace=wrap;html=1;" parent="1" vertex="1">
          <mxGeometry x="60" y="310" width="120" height="60" as="geometry" />
        </mxCell>
        <mxCell id="5ywBb_2FH1Q310NwnJPp-13" value="" style="edgeStyle=orthogonalEdgeStyle;rounded=0;orthogonalLoop=1;jettySize=auto;html=1;" parent="1" source="5ywBb_2FH1Q310NwnJPp-8" target="5ywBb_2FH1Q310NwnJPp-14" edge="1">
          <mxGeometry relative="1" as="geometry">
            <mxPoint x="290" y="450" as="targetPoint" />
          </mxGeometry>
        </mxCell>
        <mxCell id="5ywBb_2FH1Q310NwnJPp-8" value="plus" style="rounded=0;whiteSpace=wrap;html=1;" parent="1" vertex="1">
          <mxGeometry x="230" y="310" width="120" height="60" as="geometry" />
        </mxCell>
        <mxCell id="5ywBb_2FH1Q310NwnJPp-14" value="advance feature" style="swimlane;fontStyle=0;childLayout=stackLayout;horizontal=1;startSize=30;horizontalStack=0;resizeParent=1;resizeParentMax=0;resizeLast=0;collapsible=1;marginBottom=0;whiteSpace=wrap;html=1;" parent="1" vertex="1">
          <mxGeometry x="220" y="465" width="140" height="120" as="geometry" />
        </mxCell>
        <mxCell id="5ywBb_2FH1Q310NwnJPp-15" value="Upload file đính kèm" style="text;strokeColor=none;fillColor=none;align=left;verticalAlign=middle;spacingLeft=4;spacingRight=4;overflow=hidden;points=[[0,0.5],[1,0.5]];portConstraint=eastwest;rotatable=0;whiteSpace=wrap;html=1;" parent="5ywBb_2FH1Q310NwnJPp-14" vertex="1">
          <mxGeometry y="30" width="140" height="30" as="geometry" />
        </mxCell>
        <mxCell id="5ywBb_2FH1Q310NwnJPp-16" value="Tạo ảnh" style="text;strokeColor=none;fillColor=none;align=left;verticalAlign=middle;spacingLeft=4;spacingRight=4;overflow=hidden;points=[[0,0.5],[1,0.5]];portConstraint=eastwest;rotatable=0;whiteSpace=wrap;html=1;" parent="5ywBb_2FH1Q310NwnJPp-14" vertex="1">
          <mxGeometry y="60" width="140" height="30" as="geometry" />
        </mxCell>
        <mxCell id="5ywBb_2FH1Q310NwnJPp-17" value="Tạo tài liệu" style="text;strokeColor=none;fillColor=none;align=left;verticalAlign=middle;spacingLeft=4;spacingRight=4;overflow=hidden;points=[[0,0.5],[1,0.5]];portConstraint=eastwest;rotatable=0;whiteSpace=wrap;html=1;" parent="5ywBb_2FH1Q310NwnJPp-14" vertex="1">
          <mxGeometry y="90" width="140" height="30" as="geometry" />
        </mxCell>
        <mxCell id="5ywBb_2FH1Q310NwnJPp-18" value="List" style="swimlane;fontStyle=0;childLayout=stackLayout;horizontal=1;startSize=30;horizontalStack=0;resizeParent=1;resizeParentMax=0;resizeLast=0;collapsible=1;marginBottom=0;whiteSpace=wrap;html=1;" parent="1" vertex="1">
          <mxGeometry x="-450" y="390" width="140" height="150" as="geometry" />
        </mxCell>
        <mxCell id="5ywBb_2FH1Q310NwnJPp-19" value="session" style="text;strokeColor=none;fillColor=none;align=left;verticalAlign=middle;spacingLeft=4;spacingRight=4;overflow=hidden;points=[[0,0.5],[1,0.5]];portConstraint=eastwest;rotatable=0;whiteSpace=wrap;html=1;" parent="5ywBb_2FH1Q310NwnJPp-18" vertex="1">
          <mxGeometry y="30" width="140" height="30" as="geometry" />
        </mxCell>
        <mxCell id="5ywBb_2FH1Q310NwnJPp-20" value="role" style="text;strokeColor=none;fillColor=none;align=left;verticalAlign=middle;spacingLeft=4;spacingRight=4;overflow=hidden;points=[[0,0.5],[1,0.5]];portConstraint=eastwest;rotatable=0;whiteSpace=wrap;html=1;" parent="5ywBb_2FH1Q310NwnJPp-18" vertex="1">
          <mxGeometry y="60" width="140" height="30" as="geometry" />
        </mxCell>
        <mxCell id="5ywBb_2FH1Q310NwnJPp-21" value="token" style="text;strokeColor=none;fillColor=none;align=left;verticalAlign=middle;spacingLeft=4;spacingRight=4;overflow=hidden;points=[[0,0.5],[1,0.5]];portConstraint=eastwest;rotatable=0;whiteSpace=wrap;html=1;" parent="5ywBb_2FH1Q310NwnJPp-18" vertex="1">
          <mxGeometry y="90" width="140" height="30" as="geometry" />
        </mxCell>
        <mxCell id="5ywBb_2FH1Q310NwnJPp-22" value="mulltiple connections" style="text;strokeColor=none;fillColor=none;align=left;verticalAlign=middle;spacingLeft=4;spacingRight=4;overflow=hidden;points=[[0,0.5],[1,0.5]];portConstraint=eastwest;rotatable=0;whiteSpace=wrap;html=1;" parent="5ywBb_2FH1Q310NwnJPp-18" vertex="1">
          <mxGeometry y="120" width="140" height="30" as="geometry" />
        </mxCell>
        <mxCell id="9kdhv3kBT8vKv-sXy9V8-5" value="" style="edgeStyle=orthogonalEdgeStyle;rounded=0;orthogonalLoop=1;jettySize=auto;html=1;" parent="1" source="9kdhv3kBT8vKv-sXy9V8-1" target="9kdhv3kBT8vKv-sXy9V8-4" edge="1">
          <mxGeometry relative="1" as="geometry" />
        </mxCell>
        <mxCell id="9kdhv3kBT8vKv-sXy9V8-1" value="thêm mới" style="rounded=0;whiteSpace=wrap;html=1;" parent="1" vertex="1">
          <mxGeometry x="-400" y="660" width="120" height="60" as="geometry" />
        </mxCell>
        <mxCell id="9kdhv3kBT8vKv-sXy9V8-7" value="" style="edgeStyle=orthogonalEdgeStyle;rounded=0;orthogonalLoop=1;jettySize=auto;html=1;" parent="1" source="9kdhv3kBT8vKv-sXy9V8-4" target="9kdhv3kBT8vKv-sXy9V8-6" edge="1">
          <mxGeometry relative="1" as="geometry" />
        </mxCell>
        <mxCell id="9kdhv3kBT8vKv-sXy9V8-4" value="tạo userId" style="rounded=0;whiteSpace=wrap;html=1;" parent="1" vertex="1">
          <mxGeometry x="-200" y="660" width="120" height="60" as="geometry" />
        </mxCell>
        <mxCell id="9kdhv3kBT8vKv-sXy9V8-6" value="validate" style="rounded=0;whiteSpace=wrap;html=1;" parent="1" vertex="1">
          <mxGeometry y="660" width="120" height="60" as="geometry" />
        </mxCell>
        <mxCell id="9kdhv3kBT8vKv-sXy9V8-10" value="" style="edgeStyle=orthogonalEdgeStyle;rounded=0;orthogonalLoop=1;jettySize=auto;html=1;" parent="1" source="9kdhv3kBT8vKv-sXy9V8-8" target="9kdhv3kBT8vKv-sXy9V8-9" edge="1">
          <mxGeometry relative="1" as="geometry" />
        </mxCell>
        <mxCell id="9kdhv3kBT8vKv-sXy9V8-8" value="put" style="rounded=0;whiteSpace=wrap;html=1;" parent="1" vertex="1">
          <mxGeometry x="-400" y="760" width="120" height="60" as="geometry" />
        </mxCell>
        <mxCell id="9kdhv3kBT8vKv-sXy9V8-9" value="validate" style="rounded=0;whiteSpace=wrap;html=1;" parent="1" vertex="1">
          <mxGeometry x="-200" y="760" width="120" height="60" as="geometry" />
        </mxCell>
        <mxCell id="9kdhv3kBT8vKv-sXy9V8-11" value="patch" style="rounded=0;whiteSpace=wrap;html=1;" parent="1" vertex="1">
          <mxGeometry x="-400" y="860" width="120" height="60" as="geometry" />
        </mxCell>
        <mxCell id="0GozVkA2bILg9GEp45tX-1" value="password" style="rounded=0;whiteSpace=wrap;html=1;" vertex="1" parent="1">
          <mxGeometry x="-690" y="980" width="120" height="60" as="geometry" />
        </mxCell>
      </root>
    </mxGraphModel>
  </diagram>
  <diagram name="Database" id="dCK1NNl98wIt2i7XqGFN">
    <mxGraphModel dx="3080" dy="1918" grid="1" gridSize="10" guides="1" tooltips="1" connect="1" arrows="1" fold="1" page="1" pageScale="1" pageWidth="827" pageHeight="1169" math="0" shadow="0">
      <root>
        <mxCell id="0" />
        <mxCell id="1" parent="0" />
        <mxCell id="8qQnBoICOuzfbg0HQ7BT-1" value="User" style="swimlane;fontStyle=0;childLayout=stackLayout;horizontal=1;startSize=30;horizontalStack=0;resizeParent=1;resizeParentMax=0;resizeLast=0;collapsible=1;marginBottom=0;whiteSpace=wrap;html=1;" vertex="1" parent="1">
          <mxGeometry x="-310" y="150" width="140" height="120" as="geometry" />
        </mxCell>
        <mxCell id="8qQnBoICOuzfbg0HQ7BT-2" value="Id" style="text;strokeColor=none;fillColor=none;align=left;verticalAlign=middle;spacingLeft=4;spacingRight=4;overflow=hidden;points=[[0,0.5],[1,0.5]];portConstraint=eastwest;rotatable=0;whiteSpace=wrap;html=1;" vertex="1" parent="8qQnBoICOuzfbg0HQ7BT-1">
          <mxGeometry y="30" width="140" height="30" as="geometry" />
        </mxCell>
        <mxCell id="8qQnBoICOuzfbg0HQ7BT-3" value="SubscriptionType" style="text;strokeColor=none;fillColor=none;align=left;verticalAlign=middle;spacingLeft=4;spacingRight=4;overflow=hidden;points=[[0,0.5],[1,0.5]];portConstraint=eastwest;rotatable=0;whiteSpace=wrap;html=1;" vertex="1" parent="8qQnBoICOuzfbg0HQ7BT-1">
          <mxGeometry y="60" width="140" height="30" as="geometry" />
        </mxCell>
        <mxCell id="8qQnBoICOuzfbg0HQ7BT-4" value="Item 3" style="text;strokeColor=none;fillColor=none;align=left;verticalAlign=middle;spacingLeft=4;spacingRight=4;overflow=hidden;points=[[0,0.5],[1,0.5]];portConstraint=eastwest;rotatable=0;whiteSpace=wrap;html=1;" vertex="1" parent="8qQnBoICOuzfbg0HQ7BT-1">
          <mxGeometry y="90" width="140" height="30" as="geometry" />
        </mxCell>
        <mxCell id="8qQnBoICOuzfbg0HQ7BT-5" value="Session" style="swimlane;fontStyle=0;childLayout=stackLayout;horizontal=1;startSize=30;horizontalStack=0;resizeParent=1;resizeParentMax=0;resizeLast=0;collapsible=1;marginBottom=0;whiteSpace=wrap;html=1;" vertex="1" parent="1">
          <mxGeometry x="40" y="150" width="140" height="210" as="geometry" />
        </mxCell>
        <mxCell id="8qQnBoICOuzfbg0HQ7BT-6" value="Id" style="text;strokeColor=none;fillColor=none;align=left;verticalAlign=middle;spacingLeft=4;spacingRight=4;overflow=hidden;points=[[0,0.5],[1,0.5]];portConstraint=eastwest;rotatable=0;whiteSpace=wrap;html=1;" vertex="1" parent="8qQnBoICOuzfbg0HQ7BT-5">
          <mxGeometry y="30" width="140" height="30" as="geometry" />
        </mxCell>
        <mxCell id="8qQnBoICOuzfbg0HQ7BT-7" value="UserId" style="text;strokeColor=none;fillColor=none;align=left;verticalAlign=middle;spacingLeft=4;spacingRight=4;overflow=hidden;points=[[0,0.5],[1,0.5]];portConstraint=eastwest;rotatable=0;whiteSpace=wrap;html=1;" vertex="1" parent="8qQnBoICOuzfbg0HQ7BT-5">
          <mxGeometry y="60" width="140" height="30" as="geometry" />
        </mxCell>
        <mxCell id="8qQnBoICOuzfbg0HQ7BT-8" value="Token" style="text;strokeColor=none;fillColor=none;align=left;verticalAlign=middle;spacingLeft=4;spacingRight=4;overflow=hidden;points=[[0,0.5],[1,0.5]];portConstraint=eastwest;rotatable=0;whiteSpace=wrap;html=1;" vertex="1" parent="8qQnBoICOuzfbg0HQ7BT-5">
          <mxGeometry y="90" width="140" height="30" as="geometry" />
        </mxCell>
        <mxCell id="Mr0RCv3MVo_Zpey3mFT3-12" value="User_Agent" style="text;strokeColor=none;fillColor=none;align=left;verticalAlign=middle;spacingLeft=4;spacingRight=4;overflow=hidden;points=[[0,0.5],[1,0.5]];portConstraint=eastwest;rotatable=0;whiteSpace=wrap;html=1;" vertex="1" parent="8qQnBoICOuzfbg0HQ7BT-5">
          <mxGeometry y="120" width="140" height="30" as="geometry" />
        </mxCell>
        <mxCell id="Mr0RCv3MVo_Zpey3mFT3-13" value="LoginTime" style="text;strokeColor=none;fillColor=none;align=left;verticalAlign=middle;spacingLeft=4;spacingRight=4;overflow=hidden;points=[[0,0.5],[1,0.5]];portConstraint=eastwest;rotatable=0;whiteSpace=wrap;html=1;" vertex="1" parent="8qQnBoICOuzfbg0HQ7BT-5">
          <mxGeometry y="150" width="140" height="30" as="geometry" />
        </mxCell>
        <mxCell id="Mr0RCv3MVo_Zpey3mFT3-14" value="Status" style="text;strokeColor=none;fillColor=none;align=left;verticalAlign=middle;spacingLeft=4;spacingRight=4;overflow=hidden;points=[[0,0.5],[1,0.5]];portConstraint=eastwest;rotatable=0;whiteSpace=wrap;html=1;" vertex="1" parent="8qQnBoICOuzfbg0HQ7BT-5">
          <mxGeometry y="180" width="140" height="30" as="geometry" />
        </mxCell>
        <mxCell id="Mr0RCv3MVo_Zpey3mFT3-3" value="" style="edgeStyle=orthogonalEdgeStyle;rounded=0;orthogonalLoop=1;jettySize=auto;html=1;" edge="1" parent="1" source="Mr0RCv3MVo_Zpey3mFT3-1" target="Mr0RCv3MVo_Zpey3mFT3-2">
          <mxGeometry relative="1" as="geometry" />
        </mxCell>
        <mxCell id="Mr0RCv3MVo_Zpey3mFT3-1" value="laptop" style="rounded=0;whiteSpace=wrap;html=1;" vertex="1" parent="1">
          <mxGeometry x="-280" y="-110" width="120" height="60" as="geometry" />
        </mxCell>
        <mxCell id="Mr0RCv3MVo_Zpey3mFT3-2" value="db" style="rounded=0;whiteSpace=wrap;html=1;" vertex="1" parent="1">
          <mxGeometry x="20" y="-20" width="120" height="60" as="geometry" />
        </mxCell>
        <mxCell id="Mr0RCv3MVo_Zpey3mFT3-5" style="edgeStyle=orthogonalEdgeStyle;rounded=0;orthogonalLoop=1;jettySize=auto;html=1;" edge="1" parent="1" source="Mr0RCv3MVo_Zpey3mFT3-4" target="Mr0RCv3MVo_Zpey3mFT3-2">
          <mxGeometry relative="1" as="geometry" />
        </mxCell>
        <mxCell id="Mr0RCv3MVo_Zpey3mFT3-4" value="mobile" style="rounded=0;whiteSpace=wrap;html=1;" vertex="1" parent="1">
          <mxGeometry x="-280" y="-20" width="120" height="60" as="geometry" />
        </mxCell>
        <mxCell id="Mr0RCv3MVo_Zpey3mFT3-7" style="edgeStyle=orthogonalEdgeStyle;rounded=0;orthogonalLoop=1;jettySize=auto;html=1;" edge="1" parent="1" source="Mr0RCv3MVo_Zpey3mFT3-6" target="Mr0RCv3MVo_Zpey3mFT3-2">
          <mxGeometry relative="1" as="geometry" />
        </mxCell>
        <mxCell id="Mr0RCv3MVo_Zpey3mFT3-6" value="Ipad" style="rounded=0;whiteSpace=wrap;html=1;" vertex="1" parent="1">
          <mxGeometry x="-280" y="70" width="120" height="60" as="geometry" />
        </mxCell>
        <mxCell id="Mr0RCv3MVo_Zpey3mFT3-9" style="edgeStyle=orthogonalEdgeStyle;rounded=0;orthogonalLoop=1;jettySize=auto;html=1;entryX=0;entryY=0.5;entryDx=0;entryDy=0;" edge="1" parent="1" source="Mr0RCv3MVo_Zpey3mFT3-8" target="Mr0RCv3MVo_Zpey3mFT3-1">
          <mxGeometry relative="1" as="geometry" />
        </mxCell>
        <mxCell id="Mr0RCv3MVo_Zpey3mFT3-10" style="edgeStyle=orthogonalEdgeStyle;rounded=0;orthogonalLoop=1;jettySize=auto;html=1;" edge="1" parent="1" source="Mr0RCv3MVo_Zpey3mFT3-8" target="Mr0RCv3MVo_Zpey3mFT3-4">
          <mxGeometry relative="1" as="geometry" />
        </mxCell>
        <mxCell id="Mr0RCv3MVo_Zpey3mFT3-11" style="edgeStyle=orthogonalEdgeStyle;rounded=0;orthogonalLoop=1;jettySize=auto;html=1;entryX=0;entryY=0.5;entryDx=0;entryDy=0;" edge="1" parent="1" source="Mr0RCv3MVo_Zpey3mFT3-8" target="Mr0RCv3MVo_Zpey3mFT3-6">
          <mxGeometry relative="1" as="geometry" />
        </mxCell>
        <mxCell id="Mr0RCv3MVo_Zpey3mFT3-8" value="user" style="rounded=0;whiteSpace=wrap;html=1;" vertex="1" parent="1">
          <mxGeometry x="-570" y="-20" width="120" height="60" as="geometry" />
        </mxCell>
        <mxCell id="Mr0RCv3MVo_Zpey3mFT3-15" value="Recycle bin" style="swimlane;fontStyle=0;childLayout=stackLayout;horizontal=1;startSize=30;horizontalStack=0;resizeParent=1;resizeParentMax=0;resizeLast=0;collapsible=1;marginBottom=0;whiteSpace=wrap;html=1;" vertex="1" parent="1">
          <mxGeometry x="400" y="150" width="140" height="240" as="geometry" />
        </mxCell>
        <mxCell id="Mr0RCv3MVo_Zpey3mFT3-16" value="id" style="text;strokeColor=none;fillColor=none;align=left;verticalAlign=middle;spacingLeft=4;spacingRight=4;overflow=hidden;points=[[0,0.5],[1,0.5]];portConstraint=eastwest;rotatable=0;whiteSpace=wrap;html=1;" vertex="1" parent="Mr0RCv3MVo_Zpey3mFT3-15">
          <mxGeometry y="30" width="140" height="30" as="geometry" />
        </mxCell>
        <mxCell id="Mr0RCv3MVo_Zpey3mFT3-17" value="Table_Agent" style="text;strokeColor=none;fillColor=none;align=left;verticalAlign=middle;spacingLeft=4;spacingRight=4;overflow=hidden;points=[[0,0.5],[1,0.5]];portConstraint=eastwest;rotatable=0;whiteSpace=wrap;html=1;" vertex="1" parent="Mr0RCv3MVo_Zpey3mFT3-15">
          <mxGeometry y="60" width="140" height="30" as="geometry" />
        </mxCell>
        <mxCell id="Mr0RCv3MVo_Zpey3mFT3-27" value="Model_Agent" style="text;strokeColor=none;fillColor=none;align=left;verticalAlign=middle;spacingLeft=4;spacingRight=4;overflow=hidden;points=[[0,0.5],[1,0.5]];portConstraint=eastwest;rotatable=0;whiteSpace=wrap;html=1;" vertex="1" parent="Mr0RCv3MVo_Zpey3mFT3-15">
          <mxGeometry y="90" width="140" height="30" as="geometry" />
        </mxCell>
        <mxCell id="Mr0RCv3MVo_Zpey3mFT3-18" value="json" style="text;strokeColor=none;fillColor=none;align=left;verticalAlign=middle;spacingLeft=4;spacingRight=4;overflow=hidden;points=[[0,0.5],[1,0.5]];portConstraint=eastwest;rotatable=0;whiteSpace=wrap;html=1;" vertex="1" parent="Mr0RCv3MVo_Zpey3mFT3-15">
          <mxGeometry y="120" width="140" height="30" as="geometry" />
        </mxCell>
        <mxCell id="Mr0RCv3MVo_Zpey3mFT3-19" value="DeleteTime" style="text;strokeColor=none;fillColor=none;align=left;verticalAlign=middle;spacingLeft=4;spacingRight=4;overflow=hidden;points=[[0,0.5],[1,0.5]];portConstraint=eastwest;rotatable=0;whiteSpace=wrap;html=1;" vertex="1" parent="Mr0RCv3MVo_Zpey3mFT3-15">
          <mxGeometry y="150" width="140" height="30" as="geometry" />
        </mxCell>
        <mxCell id="Mr0RCv3MVo_Zpey3mFT3-25" value="DeleteBy" style="text;strokeColor=none;fillColor=none;align=left;verticalAlign=middle;spacingLeft=4;spacingRight=4;overflow=hidden;points=[[0,0.5],[1,0.5]];portConstraint=eastwest;rotatable=0;whiteSpace=wrap;html=1;" vertex="1" parent="Mr0RCv3MVo_Zpey3mFT3-15">
          <mxGeometry y="180" width="140" height="30" as="geometry" />
        </mxCell>
        <mxCell id="Mr0RCv3MVo_Zpey3mFT3-26" value="DeleteById" style="text;strokeColor=none;fillColor=none;align=left;verticalAlign=middle;spacingLeft=4;spacingRight=4;overflow=hidden;points=[[0,0.5],[1,0.5]];portConstraint=eastwest;rotatable=0;whiteSpace=wrap;html=1;" vertex="1" parent="Mr0RCv3MVo_Zpey3mFT3-15">
          <mxGeometry y="210" width="140" height="30" as="geometry" />
        </mxCell>
        <mxCell id="Mr0RCv3MVo_Zpey3mFT3-21" value="Common" style="swimlane;fontStyle=0;childLayout=stackLayout;horizontal=1;startSize=30;horizontalStack=0;resizeParent=1;resizeParentMax=0;resizeLast=0;collapsible=1;marginBottom=0;whiteSpace=wrap;html=1;" vertex="1" parent="1">
          <mxGeometry x="-730" y="162.5" width="140" height="120" as="geometry" />
        </mxCell>
        <mxCell id="Mr0RCv3MVo_Zpey3mFT3-22" value="DeleteBy" style="text;strokeColor=none;fillColor=none;align=left;verticalAlign=middle;spacingLeft=4;spacingRight=4;overflow=hidden;points=[[0,0.5],[1,0.5]];portConstraint=eastwest;rotatable=0;whiteSpace=wrap;html=1;" vertex="1" parent="Mr0RCv3MVo_Zpey3mFT3-21">
          <mxGeometry y="30" width="140" height="30" as="geometry" />
        </mxCell>
        <mxCell id="Mr0RCv3MVo_Zpey3mFT3-23" value="Item 2" style="text;strokeColor=none;fillColor=none;align=left;verticalAlign=middle;spacingLeft=4;spacingRight=4;overflow=hidden;points=[[0,0.5],[1,0.5]];portConstraint=eastwest;rotatable=0;whiteSpace=wrap;html=1;" vertex="1" parent="Mr0RCv3MVo_Zpey3mFT3-21">
          <mxGeometry y="60" width="140" height="30" as="geometry" />
        </mxCell>
        <mxCell id="Mr0RCv3MVo_Zpey3mFT3-24" value="Item 3" style="text;strokeColor=none;fillColor=none;align=left;verticalAlign=middle;spacingLeft=4;spacingRight=4;overflow=hidden;points=[[0,0.5],[1,0.5]];portConstraint=eastwest;rotatable=0;whiteSpace=wrap;html=1;" vertex="1" parent="Mr0RCv3MVo_Zpey3mFT3-21">
          <mxGeometry y="90" width="140" height="30" as="geometry" />
        </mxCell>
        <mxCell id="Mr0RCv3MVo_Zpey3mFT3-32" value="Role" style="swimlane;fontStyle=0;childLayout=stackLayout;horizontal=1;startSize=30;horizontalStack=0;resizeParent=1;resizeParentMax=0;resizeLast=0;collapsible=1;marginBottom=0;whiteSpace=wrap;html=1;" vertex="1" parent="1">
          <mxGeometry x="-310" y="310" width="140" height="150" as="geometry" />
        </mxCell>
        <mxCell id="Mr0RCv3MVo_Zpey3mFT3-33" value="Id" style="text;strokeColor=none;fillColor=none;align=left;verticalAlign=middle;spacingLeft=4;spacingRight=4;overflow=hidden;points=[[0,0.5],[1,0.5]];portConstraint=eastwest;rotatable=0;whiteSpace=wrap;html=1;" vertex="1" parent="Mr0RCv3MVo_Zpey3mFT3-32">
          <mxGeometry y="30" width="140" height="30" as="geometry" />
        </mxCell>
        <mxCell id="Mr0RCv3MVo_Zpey3mFT3-36" value="UserId" style="text;strokeColor=none;fillColor=none;align=left;verticalAlign=middle;spacingLeft=4;spacingRight=4;overflow=hidden;points=[[0,0.5],[1,0.5]];portConstraint=eastwest;rotatable=0;whiteSpace=wrap;html=1;" vertex="1" parent="Mr0RCv3MVo_Zpey3mFT3-32">
          <mxGeometry y="60" width="140" height="30" as="geometry" />
        </mxCell>
        <mxCell id="Mr0RCv3MVo_Zpey3mFT3-34" value="json" style="text;strokeColor=none;fillColor=none;align=left;verticalAlign=middle;spacingLeft=4;spacingRight=4;overflow=hidden;points=[[0,0.5],[1,0.5]];portConstraint=eastwest;rotatable=0;whiteSpace=wrap;html=1;" vertex="1" parent="Mr0RCv3MVo_Zpey3mFT3-32">
          <mxGeometry y="90" width="140" height="30" as="geometry" />
        </mxCell>
        <mxCell id="Mr0RCv3MVo_Zpey3mFT3-35" value="encrypt json" style="text;strokeColor=none;fillColor=none;align=left;verticalAlign=middle;spacingLeft=4;spacingRight=4;overflow=hidden;points=[[0,0.5],[1,0.5]];portConstraint=eastwest;rotatable=0;whiteSpace=wrap;html=1;" vertex="1" parent="Mr0RCv3MVo_Zpey3mFT3-32">
          <mxGeometry y="120" width="140" height="30" as="geometry" />
        </mxCell>
        <mxCell id="o9EjR4Qe5073MDLYbhOc-2" value="List" style="swimlane;fontStyle=0;childLayout=stackLayout;horizontal=1;startSize=30;horizontalStack=0;resizeParent=1;resizeParentMax=0;resizeLast=0;collapsible=1;marginBottom=0;whiteSpace=wrap;html=1;" vertex="1" parent="1">
          <mxGeometry x="-890" y="-270" width="140" height="120" as="geometry" />
        </mxCell>
        <mxCell id="o9EjR4Qe5073MDLYbhOc-3" value="Item 1" style="text;strokeColor=none;fillColor=none;align=left;verticalAlign=middle;spacingLeft=4;spacingRight=4;overflow=hidden;points=[[0,0.5],[1,0.5]];portConstraint=eastwest;rotatable=0;whiteSpace=wrap;html=1;" vertex="1" parent="o9EjR4Qe5073MDLYbhOc-2">
          <mxGeometry y="30" width="140" height="30" as="geometry" />
        </mxCell>
        <mxCell id="o9EjR4Qe5073MDLYbhOc-4" value="Item 2" style="text;strokeColor=none;fillColor=none;align=left;verticalAlign=middle;spacingLeft=4;spacingRight=4;overflow=hidden;points=[[0,0.5],[1,0.5]];portConstraint=eastwest;rotatable=0;whiteSpace=wrap;html=1;" vertex="1" parent="o9EjR4Qe5073MDLYbhOc-2">
          <mxGeometry y="60" width="140" height="30" as="geometry" />
        </mxCell>
        <mxCell id="o9EjR4Qe5073MDLYbhOc-5" value="Item 3" style="text;strokeColor=none;fillColor=none;align=left;verticalAlign=middle;spacingLeft=4;spacingRight=4;overflow=hidden;points=[[0,0.5],[1,0.5]];portConstraint=eastwest;rotatable=0;whiteSpace=wrap;html=1;" vertex="1" parent="o9EjR4Qe5073MDLYbhOc-2">
          <mxGeometry y="90" width="140" height="30" as="geometry" />
        </mxCell>
        <mxCell id="o9EjR4Qe5073MDLYbhOc-7" style="edgeStyle=orthogonalEdgeStyle;rounded=0;orthogonalLoop=1;jettySize=auto;html=1;" edge="1" parent="1" source="o9EjR4Qe5073MDLYbhOc-6" target="8qQnBoICOuzfbg0HQ7BT-3">
          <mxGeometry relative="1" as="geometry" />
        </mxCell>
        <mxCell id="o9EjR4Qe5073MDLYbhOc-6" value="Free&lt;div&gt;Plus&lt;/div&gt;" style="shape=note;whiteSpace=wrap;html=1;backgroundOutline=1;darkOpacity=0.05;" vertex="1" parent="1">
          <mxGeometry x="-550" y="167.5" width="110" height="115" as="geometry" />
        </mxCell>
      </root>
    </mxGraphModel>
  </diagram>
  <diagram id="gRMXhntCFnHvReZUhJA_" name="Todo">
    <mxGraphModel dx="2253" dy="749" grid="1" gridSize="10" guides="1" tooltips="1" connect="1" arrows="1" fold="1" page="1" pageScale="1" pageWidth="827" pageHeight="1169" math="0" shadow="0">
      <root>
        <mxCell id="0" />
        <mxCell id="1" parent="0" />
        <mxCell id="wPiamqeHaHRS0Bsu9EsC-1" value="02/10/2024" style="swimlane;fontStyle=0;childLayout=stackLayout;horizontal=1;startSize=30;horizontalStack=0;resizeParent=1;resizeParentMax=0;resizeLast=0;collapsible=1;marginBottom=0;whiteSpace=wrap;html=1;" vertex="1" parent="1">
          <mxGeometry x="-530" y="270" width="140" height="120" as="geometry" />
        </mxCell>
        <mxCell id="wPiamqeHaHRS0Bsu9EsC-2" value="API Đăng ký" style="text;strokeColor=none;fillColor=none;align=left;verticalAlign=middle;spacingLeft=4;spacingRight=4;overflow=hidden;points=[[0,0.5],[1,0.5]];portConstraint=eastwest;rotatable=0;whiteSpace=wrap;html=1;" vertex="1" parent="wPiamqeHaHRS0Bsu9EsC-1">
          <mxGeometry y="30" width="140" height="30" as="geometry" />
        </mxCell>
        <mxCell id="wPiamqeHaHRS0Bsu9EsC-3" value="API Login" style="text;strokeColor=none;fillColor=none;align=left;verticalAlign=middle;spacingLeft=4;spacingRight=4;overflow=hidden;points=[[0,0.5],[1,0.5]];portConstraint=eastwest;rotatable=0;whiteSpace=wrap;html=1;" vertex="1" parent="wPiamqeHaHRS0Bsu9EsC-1">
          <mxGeometry y="60" width="140" height="30" as="geometry" />
        </mxCell>
        <mxCell id="wPiamqeHaHRS0Bsu9EsC-4" value="Item 3" style="text;strokeColor=none;fillColor=none;align=left;verticalAlign=middle;spacingLeft=4;spacingRight=4;overflow=hidden;points=[[0,0.5],[1,0.5]];portConstraint=eastwest;rotatable=0;whiteSpace=wrap;html=1;" vertex="1" parent="wPiamqeHaHRS0Bsu9EsC-1">
          <mxGeometry y="90" width="140" height="30" as="geometry" />
        </mxCell>
      </root>
    </mxGraphModel>
  </diagram>
  <diagram id="DwItG-ubiR93uIefi3sZ" name="Draft">
    <mxGraphModel dx="872" dy="437" grid="1" gridSize="10" guides="1" tooltips="1" connect="1" arrows="1" fold="1" page="1" pageScale="1" pageWidth="827" pageHeight="1169" math="0" shadow="0">
      <root>
        <mxCell id="0" />
        <mxCell id="1" parent="0" />
        <mxCell id="Y_o8Z3ylmt7d9GiCKmyv-7" style="edgeStyle=orthogonalEdgeStyle;rounded=0;orthogonalLoop=1;jettySize=auto;html=1;" edge="1" parent="1" source="Y_o8Z3ylmt7d9GiCKmyv-1" target="Y_o8Z3ylmt7d9GiCKmyv-2">
          <mxGeometry relative="1" as="geometry" />
        </mxCell>
        <mxCell id="Y_o8Z3ylmt7d9GiCKmyv-1" value="Đăng ký" style="rounded=0;whiteSpace=wrap;html=1;" vertex="1" parent="1">
          <mxGeometry x="270" y="290" width="120" height="60" as="geometry" />
        </mxCell>
        <mxCell id="Y_o8Z3ylmt7d9GiCKmyv-6" value="" style="edgeStyle=orthogonalEdgeStyle;rounded=0;orthogonalLoop=1;jettySize=auto;html=1;" edge="1" parent="1" source="Y_o8Z3ylmt7d9GiCKmyv-2" target="Y_o8Z3ylmt7d9GiCKmyv-8">
          <mxGeometry relative="1" as="geometry">
            <mxPoint x="540" y="460" as="targetPoint" />
          </mxGeometry>
        </mxCell>
        <mxCell id="Y_o8Z3ylmt7d9GiCKmyv-2" value="email" style="rounded=0;whiteSpace=wrap;html=1;" vertex="1" parent="1">
          <mxGeometry x="480" y="290" width="120" height="60" as="geometry" />
        </mxCell>
        <mxCell id="Y_o8Z3ylmt7d9GiCKmyv-10" value="" style="edgeStyle=orthogonalEdgeStyle;rounded=0;orthogonalLoop=1;jettySize=auto;html=1;" edge="1" parent="1" source="Y_o8Z3ylmt7d9GiCKmyv-8" target="Y_o8Z3ylmt7d9GiCKmyv-9">
          <mxGeometry relative="1" as="geometry" />
        </mxCell>
        <mxCell id="Y_o8Z3ylmt7d9GiCKmyv-11" value="yes" style="edgeLabel;html=1;align=center;verticalAlign=middle;resizable=0;points=[];" vertex="1" connectable="0" parent="Y_o8Z3ylmt7d9GiCKmyv-10">
          <mxGeometry x="-0.0182" y="-1" relative="1" as="geometry">
            <mxPoint x="1" as="offset" />
          </mxGeometry>
        </mxCell>
        <mxCell id="Y_o8Z3ylmt7d9GiCKmyv-13" value="" style="edgeStyle=orthogonalEdgeStyle;rounded=0;orthogonalLoop=1;jettySize=auto;html=1;" edge="1" parent="1" source="Y_o8Z3ylmt7d9GiCKmyv-8" target="Y_o8Z3ylmt7d9GiCKmyv-12">
          <mxGeometry relative="1" as="geometry" />
        </mxCell>
        <mxCell id="Y_o8Z3ylmt7d9GiCKmyv-15" value="no" style="edgeLabel;html=1;align=center;verticalAlign=middle;resizable=0;points=[];" vertex="1" connectable="0" parent="Y_o8Z3ylmt7d9GiCKmyv-13">
          <mxGeometry x="-0.2762" y="3" relative="1" as="geometry">
            <mxPoint x="-3" as="offset" />
          </mxGeometry>
        </mxCell>
        <mxCell id="Y_o8Z3ylmt7d9GiCKmyv-8" value="api/verifyEmail" style="rhombus;whiteSpace=wrap;html=1;" vertex="1" parent="1">
          <mxGeometry x="477.5" y="440" width="125" height="110" as="geometry" />
        </mxCell>
        <mxCell id="Y_o8Z3ylmt7d9GiCKmyv-9" value="&lt;div&gt;{&lt;/div&gt;&lt;div&gt;&lt;span style=&quot;white-space: normal;&quot;&gt;&lt;span style=&quot;white-space:pre&quot;&gt;&#x9;&lt;/span&gt;&quot;email_existed&quot;: true,&lt;/span&gt;&lt;/div&gt;&lt;div&gt;&lt;span style=&quot;white-space: normal;&quot;&gt;&lt;span style=&quot;white-space:pre&quot;&gt;&#x9;&lt;/span&gt;&quot;rollbackTo_login&quot;: true,&lt;/span&gt;&lt;/div&gt;&lt;div&gt;&lt;span style=&quot;white-space: normal;&quot;&gt;&lt;span style=&quot;white-space:pre&quot;&gt;&#x9;&lt;/span&gt;&quot;continue_signup&quot;: false,&lt;/span&gt;&lt;/div&gt;&lt;div&gt;&lt;span style=&quot;white-space: normal;&quot;&gt;&lt;span style=&quot;white-space:pre&quot;&gt;&#x9;&lt;/span&gt;&quot;email_requested&quot;: &quot;example@gmail.com&quot;,&lt;/span&gt;&lt;/div&gt;&lt;div&gt;}&lt;/div&gt;" style="whiteSpace=wrap;html=1;" vertex="1" parent="1">
          <mxGeometry x="780" y="452.5" width="380" height="85" as="geometry" />
        </mxCell>
        <mxCell id="Y_o8Z3ylmt7d9GiCKmyv-18" value="" style="edgeStyle=orthogonalEdgeStyle;rounded=0;orthogonalLoop=1;jettySize=auto;html=1;" edge="1" parent="1" source="Y_o8Z3ylmt7d9GiCKmyv-12" target="Y_o8Z3ylmt7d9GiCKmyv-17">
          <mxGeometry relative="1" as="geometry" />
        </mxCell>
        <mxCell id="Y_o8Z3ylmt7d9GiCKmyv-21" value="hash password" style="edgeLabel;html=1;align=center;verticalAlign=middle;resizable=0;points=[];" vertex="1" connectable="0" parent="Y_o8Z3ylmt7d9GiCKmyv-18">
          <mxGeometry x="0.025" y="-2" relative="1" as="geometry">
            <mxPoint as="offset" />
          </mxGeometry>
        </mxCell>
        <mxCell id="Y_o8Z3ylmt7d9GiCKmyv-12" value="create password" style="whiteSpace=wrap;html=1;" vertex="1" parent="1">
          <mxGeometry x="480" y="655" width="120" height="60" as="geometry" />
        </mxCell>
        <mxCell id="Y_o8Z3ylmt7d9GiCKmyv-20" value="" style="edgeStyle=orthogonalEdgeStyle;rounded=0;orthogonalLoop=1;jettySize=auto;html=1;" edge="1" parent="1" source="Y_o8Z3ylmt7d9GiCKmyv-17" target="Y_o8Z3ylmt7d9GiCKmyv-19">
          <mxGeometry relative="1" as="geometry" />
        </mxCell>
        <mxCell id="Y_o8Z3ylmt7d9GiCKmyv-17" value="api/signIn" style="whiteSpace=wrap;html=1;" vertex="1" parent="1">
          <mxGeometry x="760" y="655" width="120" height="60" as="geometry" />
        </mxCell>
        <mxCell id="Y_o8Z3ylmt7d9GiCKmyv-19" value="" style="ellipse;whiteSpace=wrap;html=1;" vertex="1" parent="1">
          <mxGeometry x="780" y="785" width="80" height="80" as="geometry" />
        </mxCell>
        <mxCell id="Y_o8Z3ylmt7d9GiCKmyv-25" style="rounded=0;orthogonalLoop=1;jettySize=auto;html=1;" edge="1" parent="1" source="Y_o8Z3ylmt7d9GiCKmyv-22" target="Y_o8Z3ylmt7d9GiCKmyv-24">
          <mxGeometry relative="1" as="geometry" />
        </mxCell>
        <mxCell id="Y_o8Z3ylmt7d9GiCKmyv-22" value="user" style="rounded=0;whiteSpace=wrap;html=1;" vertex="1" parent="1">
          <mxGeometry x="260" y="1000" width="120" height="60" as="geometry" />
        </mxCell>
        <mxCell id="Y_o8Z3ylmt7d9GiCKmyv-26" style="rounded=0;orthogonalLoop=1;jettySize=auto;html=1;" edge="1" parent="1" source="Y_o8Z3ylmt7d9GiCKmyv-23" target="Y_o8Z3ylmt7d9GiCKmyv-24">
          <mxGeometry relative="1" as="geometry" />
        </mxCell>
        <mxCell id="Y_o8Z3ylmt7d9GiCKmyv-23" value="session" style="rounded=0;whiteSpace=wrap;html=1;" vertex="1" parent="1">
          <mxGeometry x="260" y="1109" width="120" height="60" as="geometry" />
        </mxCell>
        <mxCell id="Y_o8Z3ylmt7d9GiCKmyv-28" value="" style="edgeStyle=orthogonalEdgeStyle;rounded=0;orthogonalLoop=1;jettySize=auto;html=1;" edge="1" parent="1" source="Y_o8Z3ylmt7d9GiCKmyv-24" target="Y_o8Z3ylmt7d9GiCKmyv-27">
          <mxGeometry relative="1" as="geometry" />
        </mxCell>
        <mxCell id="Y_o8Z3ylmt7d9GiCKmyv-24" value="generic" style="rounded=0;whiteSpace=wrap;html=1;" vertex="1" parent="1">
          <mxGeometry x="480" y="1050" width="120" height="60" as="geometry" />
        </mxCell>
        <mxCell id="Y_o8Z3ylmt7d9GiCKmyv-27" value="insert corectly" style="rounded=0;whiteSpace=wrap;html=1;" vertex="1" parent="1">
          <mxGeometry x="680" y="1050" width="120" height="60" as="geometry" />
        </mxCell>
      </root>
    </mxGraphModel>
  </diagram>
</mxfile>
